STARTFONT 2.1
FONT met25
SIZE 28 75 75
FONTBOUNDINGBOX 33 30 0 -9

STARTPROPERTIES 10
COPYRIGHT "Public domain font.  Share and enjoy."
POINT_SIZE 280
WEIGHT 10
RESOLUTION_X 75
RESOLUTION_Y 75
X_HEIGHT 21
QUAD_WIDTH 19
DEFAULT_CHAR 0
FONT_DESCENT 9
FONT_ASCENT 21
ENDPROPERTIES

CHARS 126

STARTCHAR C000
ENCODING 0
SWIDTH 571 0
DWIDTH 16 0
BBX 16 30 0 -9
BITMAP
FFF8
FFF8
FFF8
FFF8
FFF8
FFF8
FFF8
FFF8
FFF8
FFF8
FFF8
FFF8
FFF8
FFF8
FFF8
FFF8
FFF8
FFF8
FFF8
FFF8
FFF8
FFF8
FFF8
FFF8
FFF8
0000
0000
0000
0000
0000
ENDCHAR

STARTCHAR C001
ENCODING 1
SWIDTH 571 0
DWIDTH 16 0
BBX 16 30 0 -9
BITMAP
0300
0300
0300
0300
0300
0300
0300
0300
0300
0300
4308
6318
7338
3330
3B70
1B60
0FC0
0FC0
0780
0300
0000
0000
0000
0000
0000
0000
0000
0000
0000
0000
ENDCHAR

STARTCHAR C002
ENCODING 2
SWIDTH 571 0
DWIDTH 16 0
BBX 16 30 0 -9
BITMAP
0000
0000
0000
0000
0000
0000
000C
1E18
3F18
61B0
40F0
C0E0
C060
C060
C060
C0E0
40F0
61B0
3F1C
1E04
0000
0000
0000
0000
0000
0000
0000
0000
0000
0000
ENDCHAR

STARTCHAR C003
ENCODING 3
SWIDTH 571 0
DWIDTH 16 0
BBX 16 30 0 -9
BITMAP
00E0
03F0
07F8
0E38
1C18
1818
3030
3030
6060
60C0
61C0
60F0
E038
E01C
E01C
E01C
E01C
F838
FFF0
CFE0
C000
C000
C000
C000
C000
0000
0000
0000
0000
0000
ENDCHAR

STARTCHAR C004
ENCODING 4
SWIDTH 571 0
DWIDTH 16 0
BBX 16 30 0 -9
BITMAP
0000
0000
0000
0000
0000
0000
0000
0300
0780
0CC0
0CC0
1860
1860
3030
3030
6018
6018
C00C
C00C
8004
0000
0000
0000
0000
0000
0000
0000
0000
0000
0000
ENDCHAR

STARTCHAR C005
ENCODING 5
SWIDTH 571 0
DWIDTH 16 0
BBX 16 30 0 -9
BITMAP
0000
0000
0000
0000
0000
0000
0000
0000
0000
0000
FFFC
FFFC
000C
000C
000C
000C
0000
0000
0000
0000
0000
0000
0000
0000
0000
0000
0000
0000
0000
0000
ENDCHAR

STARTCHAR C006
ENCODING 6
SWIDTH 571 0
DWIDTH 16 0
BBX 16 30 0 -9
BITMAP
0000
0000
0000
0000
0000
0000
0000
03E0
0F00
1C00
1800
3000
3000
3F80
3000
3000
1800
1C00
0F00
03E0
0000
0000
0000
0000
0000
0000
0000
0000
0000
0000
ENDCHAR

STARTCHAR C007
ENCODING 7
SWIDTH 571 0
DWIDTH 16 0
BBX 16 30 0 -9
BITMAP
0000
0000
0000
0000
0000
0000
0000
3F0C
FFFC
CCF0
8C60
0C60
1860
1860
1860
1830
3030
3030
3018
3018
0000
0000
0000
0000
0000
0000
0000
0000
0000
0000
ENDCHAR

STARTCHAR C010
ENCODING 8
SWIDTH 571 0
DWIDTH 16 0
BBX 16 30 0 -9
BITMAP
0000
0000
7800
FC00
8E00
8600
0300
0300
0180
0180
0180
03C0
07C0
0EC0
1C60
3860
7030
6030
C018
C01C
0000
0000
0000
0000
0000
0000
0000
0000
0000
0000
ENDCHAR

STARTCHAR C011
ENCODING 9
SWIDTH 571 0
DWIDTH 16 0
BBX 16 30 0 -9
BITMAP
0000
0000
0000
0008
C018
E038
7070
38E0
1DC0
0F80
0700
0700
0700
0780
0580
0580
0580
0780
0300
0000
0000
0000
0000
0000
0000
0000
0000
0000
0000
0000
ENDCHAR

STARTCHAR C012
ENCODING 10
SWIDTH 571 0
DWIDTH 16 0
BBX 16 30 0 -9
BITMAP
0000
0000
0000
0FC0
3FF0
7070
6010
7000
3C00
0F00
0FC0
3FE0
7070
C030
C030
C030
E070
78E0
7FE0
1F80
0000
0000
0000
0000
0000
0000
0000
0000
0000
0000
ENDCHAR

STARTCHAR C013
ENCODING 11
SWIDTH 571 0
DWIDTH 16 0
BBX 16 30 0 -9
BITMAP
0300
0780
0FC0
0FC0
1B60
3B70
3330
7338
6318
4308
0300
0300
0300
0300
0300
0300
0300
0300
0300
0300
0000
0000
0000
0000
0000
0000
0000
0000
0000
0000
ENDCHAR

STARTCHAR C014
ENCODING 12
SWIDTH 571 0
DWIDTH 16 0
BBX 16 30 0 -9
BITMAP
0000
0300
0300
0300
0300
0300
0300
FFFC
FFFC
0300
0300
0300
0300
0300
0300
0000
0000
FFFC
FFFC
0000
0000
0000
0000
0000
0000
0000
0000
0000
0000
0000
ENDCHAR

STARTCHAR C015
ENCODING 13
SWIDTH 571 0
DWIDTH 16 0
BBX 16 30 0 -9
BITMAP
0000
0000
0000
0000
0000
0780
1FE0
3330
6318
4308
C30C
FFFC
FFFC
C30C
4308
6318
3330
1FE0
0780
0000
0000
0000
0000
0000
0000
0000
0000
0000
0000
0000
ENDCHAR

STARTCHAR C016
ENCODING 14
SWIDTH 571 0
DWIDTH 16 0
BBX 16 30 0 -9
BITMAP
0000
0000
0000
0000
0000
0000
0000
0000
0000
3870
7CF8
C78C
C30C
C30C
C30C
C78C
7CF8
3870
0000
0000
0000
0000
0000
0000
0000
0000
0000
0000
0000
0000
ENDCHAR

STARTCHAR C017
ENCODING 15
SWIDTH 571 0
DWIDTH 16 0
BBX 16 30 0 -9
BITMAP
0780
0FE0
0C30
0018
0018
0018
0018
0018
0018
0F98
1FF8
3038
6018
6018
6018
6018
6030
30E0
3FC0
0F80
0000
0000
0000
0000
0000
0000
0000
0000
0000
0000
ENDCHAR

STARTCHAR C020
ENCODING 16
SWIDTH 571 0
DWIDTH 16 0
BBX 16 30 0 -9
BITMAP
0000
0000
0000
0000
0000
0000
0000
07FC
1FFC
3800
7000
E000
C000
C000
C000
E000
7000
3800
1FFC
07FC
0000
0000
0000
0000
0000
0000
0000
0000
0000
0000
ENDCHAR

STARTCHAR C021
ENCODING 17
SWIDTH 571 0
DWIDTH 16 0
BBX 16 30 0 -9
BITMAP
0000
0000
0000
0000
0000
0000
0000
FF80
FFE0
0070
0038
001C
000C
000C
000C
001C
0038
0070
FFE0
FF80
0000
0000
0000
0000
0000
0000
0000
0000
0000
0000
ENDCHAR

STARTCHAR C022
ENCODING 18
SWIDTH 571 0
DWIDTH 16 0
BBX 16 30 0 -9
BITMAP
0000
0000
0000
0700
1FC0
38E0
7070
6030
6030
6030
6030
6030
6030
6030
6030
6030
6030
6030
6030
6030
0000
0000
0000
0000
0000
0000
0000
0000
0000
0000
ENDCHAR

STARTCHAR C023
ENCODING 19
SWIDTH 571 0
DWIDTH 16 0
BBX 16 30 0 -9
BITMAP
0000
0000
0000
6030
6030
6030
6030
6030
6030
6030
6030
6030
6030
6030
6030
6030
7070
38E0
1FC0
0700
0000
0000
0000
0000
0000
0000
0000
0000
0000
0000
ENDCHAR

STARTCHAR C024
ENCODING 20
SWIDTH 571 0
DWIDTH 16 0
BBX 16 30 0 -9
BITMAP
C00C
C00C
6018
6018
6018
3030
3030
3FF0
1FE0
1860
1860
0CC0
0CC0
0CC0
0780
0780
0780
0300
0300
0300
0000
0000
0000
0000
0000
0000
0000
0000
0000
0000
ENDCHAR

STARTCHAR C025
ENCODING 21
SWIDTH 571 0
DWIDTH 16 0
BBX 16 30 0 -9
BITMAP
FFFC
FFF8
0018
0018
0018
0018
0018
0018
0018
07F8
07F8
0018
0018
0018
0018
0018
0018
0018
FFF8
FFFC
0000
0000
0000
0000
0000
0000
0000
0000
0000
0000
ENDCHAR

STARTCHAR C026
ENCODING 22
SWIDTH 571 0
DWIDTH 16 0
BBX 16 30 0 -9
BITMAP
0000
0000
0000
0000
0000
0000
0000
0780
1FE0
3030
7878
4CC8
C78C
C30C
C78C
4CC8
7878
3030
1FE0
0780
0000
0000
0000
0000
0000
0000
0000
0000
0000
0000
ENDCHAR

STARTCHAR C027
ENCODING 23
SWIDTH 571 0
DWIDTH 16 0
BBX 16 30 0 -9
BITMAP
0000
0000
0000
0000
0000
0000
0000
0000
0840
1860
3030
6018
FFFC
FFFC
6018
3030
1860
0840
0000
0000
0000
0000
0000
0000
0000
0000
0000
0000
0000
0000
ENDCHAR

STARTCHAR C030
ENCODING 24
SWIDTH 571 0
DWIDTH 16 0
BBX 16 30 0 -9
BITMAP
0000
0000
0000
0000
0000
0000
0000
0000
0C00
1800
3000
6000
FFFC
FFFC
6000
3000
1800
0C00
0000
0000
0000
0000
0000
0000
0000
0000
0000
0000
0000
0000
ENDCHAR

STARTCHAR C031
ENCODING 25
SWIDTH 571 0
DWIDTH 16 0
BBX 16 30 0 -9
BITMAP
0000
0000
0000
0000
0000
0000
0000
0000
00C0
0060
0030
0018
FFFC
FFFC
0018
0030
0060
00C0
0000
0000
0000
0000
0000
0000
0000
0000
0000
0000
0000
0000
ENDCHAR

STARTCHAR C032
ENCODING 26
SWIDTH 571 0
DWIDTH 16 0
BBX 16 30 0 -9
BITMAP
0000
0000
0000
0000
0000
0000
0000
0018
0030
0060
7FF8
7FF8
0180
0300
7FF8
7FF8
1800
3000
6000
0000
0000
0000
0000
0000
0000
0000
0000
0000
0000
0000
ENDCHAR

STARTCHAR C033
ENCODING 27
SWIDTH 571 0
DWIDTH 16 0
BBX 16 30 0 -9
BITMAP
0000
0000
0200
0200
0700
0700
0F80
1DC0
38E0
7070
F078
7070
38E0
1DC0
0F80
0700
0700
0200
0200
0000
0000
0000
0000
0000
0000
0000
0000
0000
0000
0000
ENDCHAR

STARTCHAR C034
ENCODING 28
SWIDTH 571 0
DWIDTH 16 0
BBX 16 30 0 -9
BITMAP
0000
0000
0000
0000
0018
0078
01E0
0780
1E00
7800
7800
1E00
0780
01E0
0078
0018
0000
0000
7FF8
7FF8
0000
0000
0000
0000
0000
0000
0000
0000
0000
0000
ENDCHAR

STARTCHAR C035
ENCODING 29
SWIDTH 571 0
DWIDTH 16 0
BBX 16 30 0 -9
BITMAP
0000
0000
0000
0000
6000
7800
1E00
0780
01E0
0078
0078
01E0
0780
1E00
7800
6000
0000
0000
7FF8
7FF8
0000
0000
0000
0000
0000
0000
0000
0000
0000
0000
ENDCHAR

STARTCHAR C036
ENCODING 30
SWIDTH 571 0
DWIDTH 16 0
BBX 16 30 0 -9
BITMAP
0000
0000
0000
0000
0000
0000
0000
0000
7FF8
7FF8
0000
0000
7FF8
7FF8
0000
0000
7FF8
7FF8
0000
0000
0000
0000
0000
0000
0000
0000
0000
0000
0000
0000
ENDCHAR

STARTCHAR C037
ENCODING 31
SWIDTH 571 0
DWIDTH 16 0
BBX 16 30 0 -9
BITMAP
0000
0000
0000
0000
0000
0000
0000
8004
C00C
C00C
6018
6018
3030
3030
1860
1860
0CC0
0CC0
0780
0300
0000
0000
0000
0000
0000
0000
0000
0000
0000
0000
ENDCHAR

STARTCHAR C040
ENCODING 32
SWIDTH 571 0
DWIDTH 16 0
BBX 16 30 0 -9
BITMAP
0000
0000
0000
0000
0000
0000
0000
0000
0000
0000
0000
0000
0000
0000
0000
0000
0000
0000
0000
0000
0000
0000
0000
0000
0000
0000
0000
0000
0000
0000
ENDCHAR

STARTCHAR !
ENCODING 33
SWIDTH 250 0
DWIDTH 7 0
BBX 7 30 0 -9
BITMAP
00
00
40
E0
E0
E0
E0
E0
E0
E0
E0
E0
E0
40
40
00
00
40
E0
E0
40
00
00
00
00
00
00
00
00
00
ENDCHAR

STARTCHAR "
ENCODING 34
SWIDTH 464 0
DWIDTH 13 0
BBX 13 30 0 -9
BITMAP
0000
0000
4100
E380
E380
E380
E380
E380
4100
4100
4100
0000
0000
0000
0000
0000
0000
0000
0000
0000
0000
0000
0000
0000
0000
0000
0000
0000
0000
0000
ENDCHAR

STARTCHAR #
ENCODING 35
SWIDTH 821 0
DWIDTH 23 0
BBX 23 30 0 -9
BITMAP
000000
000000
01C380
01C380
01C380
038700
038700
038700
3FFFE0
3FFFE0
070E00
070E00
0E1C00
FFFF80
FFFF80
1C3800
1C3800
1C3800
387000
387000
387000
000000
000000
000000
000000
000000
000000
000000
000000
000000
ENDCHAR

STARTCHAR $
ENCODING 36
SWIDTH 678 0
DWIDTH 19 0
BBX 19 30 0 -9
BITMAP
01C000
01C000
07F800
1FFC00
39C600
71CF00
71CF00
79C600
7DC000
3FC000
1FF000
07FC00
01FE00
01DF00
71CF00
F9C700
F9C700
61C700
71CE00
3FFC00
0FF000
01C000
01C000
000000
000000
000000
000000
000000
000000
000000
ENDCHAR

STARTCHAR %
ENCODING 37
SWIDTH 857 0
DWIDTH 24 0
BBX 24 30 0 -9
BITMAP
000000
000000
3C0700
7E0700
E70E00
C30E00
E71C00
7E1C00
3C3800
003800
007000
007000
00E000
00E000
01C3C0
01C7E0
038E70
038C30
070E70
0707E0
0E03C0
0E0000
000000
000000
000000
000000
000000
000000
000000
000000
ENDCHAR

STARTCHAR &
ENCODING 38
SWIDTH 857 0
DWIDTH 24 0
BBX 24 30 0 -9
BITMAP
000000
000000
078000
1FE000
3C7000
383000
383000
3C7000
1EE000
0FC000
07C7FC
1FC7FC
3FE0E0
78F1C0
F07F80
E03F00
E01E00
F01F00
783F80
3FF3FC
0FC1F8
0000E0
000000
000000
000000
000000
000000
000000
000000
000000
ENDCHAR

STARTCHAR '
ENCODING 39
SWIDTH 250 0
DWIDTH 7 0
BBX 7 30 0 -9
BITMAP
00
00
40
E0
E0
E0
E0
E0
40
40
40
00
00
00
00
00
00
00
00
00
00
00
00
00
00
00
00
00
00
00
ENDCHAR

STARTCHAR (
ENCODING 40
SWIDTH 428 0
DWIDTH 12 0
BBX 12 30 0 -9
BITMAP
0700
0E00
1C00
3800
3800
7000
7000
E000
E000
E000
E000
E000
E000
E000
E000
E000
E000
7000
7000
3800
3800
1C00
0E00
0700
0000
0000
0000
0000
0000
0000
ENDCHAR

STARTCHAR )
ENCODING 41
SWIDTH 428 0
DWIDTH 12 0
BBX 12 30 0 -9
BITMAP
E000
7000
3800
1C00
1C00
0E00
0E00
0700
0700
0700
0700
0700
0700
0700
0700
0700
0700
0E00
0E00
1C00
1C00
3800
7000
E000
0000
0000
0000
0000
0000
0000
ENDCHAR

STARTCHAR *
ENCODING 42
SWIDTH 571 0
DWIDTH 16 0
BBX 16 30 0 -9
BITMAP
0000
0000
0300
0780
C30C
E31C
F33C
3FF0
1FE0
0FC0
1FE0
3FF0
F33C
E31C
C30C
0780
0300
0000
0000
0000
0000
0000
0000
0000
0000
0000
0000
0000
0000
0000
ENDCHAR

STARTCHAR +
ENCODING 43
SWIDTH 607 0
DWIDTH 17 0
BBX 17 30 0 -9
BITMAP
000000
000000
000000
000000
000000
000000
038000
038000
038000
038000
038000
038000
FFFE00
FFFE00
FFFE00
038000
038000
038000
038000
038000
038000
000000
000000
000000
000000
000000
000000
000000
000000
000000
ENDCHAR

STARTCHAR ,
ENCODING 44
SWIDTH 321 0
DWIDTH 9 0
BBX 9 30 0 -9
BITMAP
0000
0000
0000
0000
0000
0000
0000
0000
0000
0000
0000
0000
0000
0000
0000
0000
0000
0000
7000
F800
F800
7800
3800
3000
6000
C000
0000
0000
0000
0000
ENDCHAR

STARTCHAR -
ENCODING 45
SWIDTH 535 0
DWIDTH 15 0
BBX 15 30 0 -9
BITMAP
0000
0000
0000
0000
0000
0000
0000
0000
0000
0000
0000
0000
FFE0
FFE0
FFE0
0000
0000
0000
0000
0000
0000
0000
0000
0000
0000
0000
0000
0000
0000
0000
ENDCHAR

STARTCHAR .
ENCODING 46
SWIDTH 321 0
DWIDTH 9 0
BBX 9 30 0 -9
BITMAP
0000
0000
0000
0000
0000
0000
0000
0000
0000
0000
0000
0000
0000
0000
0000
0000
0000
0000
7000
F800
F800
7000
0000
0000
0000
0000
0000
0000
0000
0000
ENDCHAR

STARTCHAR /
ENCODING 47
SWIDTH 535 0
DWIDTH 15 0
BBX 15 30 0 -9
BITMAP
0000
00E0
00E0
01C0
01C0
01C0
0380
0380
0700
0700
0700
0E00
0E00
1C00
1C00
1C00
3800
3800
7000
7000
7000
E000
E000
0000
0000
0000
0000
0000
0000
0000
ENDCHAR

STARTCHAR 0
ENCODING 48
SWIDTH 678 0
DWIDTH 19 0
BBX 19 30 0 -9
BITMAP
000000
000000
07C000
1FF000
383800
701C00
701C00
E00E00
E00E00
E00E00
E00E00
E00E00
E00E00
E00E00
E00E00
E00E00
701C00
701C00
383800
1FF000
07C000
000000
000000
000000
000000
000000
000000
000000
000000
000000
ENDCHAR

STARTCHAR 1
ENCODING 49
SWIDTH 678 0
DWIDTH 19 0
BBX 19 30 0 -9
BITMAP
000000
000000
060000
0E0000
1E0000
FE0000
FE0000
0E0000
0E0000
0E0000
0E0000
0E0000
0E0000
0E0000
0E0000
0E0000
0E0000
0E0000
0E0000
7FC000
7FC000
000000
000000
000000
000000
000000
000000
000000
000000
000000
ENDCHAR

STARTCHAR 2
ENCODING 50
SWIDTH 678 0
DWIDTH 19 0
BBX 19 30 0 -9
BITMAP
000000
000000
07E000
1FF800
303C00
781C00
781C00
301C00
003C00
007800
01F000
03E000
0F8000
1E0000
3C0000
780600
700600
E00E00
E01E00
FFFE00
FFFE00
000000
000000
000000
000000
000000
000000
000000
000000
000000
ENDCHAR

STARTCHAR 3
ENCODING 51
SWIDTH 678 0
DWIDTH 19 0
BBX 19 30 0 -9
BITMAP
000000
000000
07E000
1FF000
303800
781C00
781C00
301C00
001C00
003800
03F000
03F800
001C00
000E00
600E00
F00E00
F00E00
E01C00
703C00
3FF800
0FE000
000000
000000
000000
000000
000000
000000
000000
000000
000000
ENDCHAR

STARTCHAR 4
ENCODING 52
SWIDTH 678 0
DWIDTH 19 0
BBX 19 30 0 -9
BITMAP
000000
000000
001C00
003C00
007C00
00FC00
01DC00
039C00
071C00
0E1C00
1C1C00
381C00
701C00
E01C00
FFFF80
FFFF80
001C00
001C00
001C00
00FF80
00FF80
000000
000000
000000
000000
000000
000000
000000
000000
000000
ENDCHAR

STARTCHAR 5
ENCODING 53
SWIDTH 678 0
DWIDTH 19 0
BBX 19 30 0 -9
BITMAP
000000
000000
0FFE00
0FFC00
1C0000
1C0000
380000
380000
3FE000
7FF800
703C00
001C00
000E00
000E00
600E00
F00E00
F00E00
E01C00
703C00
3FF800
0FE000
000000
000000
000000
000000
000000
000000
000000
000000
000000
ENDCHAR

STARTCHAR 6
ENCODING 54
SWIDTH 678 0
DWIDTH 19 0
BBX 19 30 0 -9
BITMAP
000000
000000
07E000
1FF800
383C00
703C00
601800
E00000
E00000
EFE000
FFF800
F03C00
E01C00
E00E00
E00E00
E00E00
E00E00
601E00
703C00
3FF800
0FE000
000000
000000
000000
000000
000000
000000
000000
000000
000000
ENDCHAR

STARTCHAR 7
ENCODING 55
SWIDTH 678 0
DWIDTH 19 0
BBX 19 30 0 -9
BITMAP
000000
000000
FFFE00
FFFE00
E00E00
C00E00
C01C00
003800
007000
00E000
01C000
01C000
038000
038000
070000
070000
070000
0F0000
0F0000
0F0000
0F0000
000000
000000
000000
000000
000000
000000
000000
000000
000000
ENDCHAR

STARTCHAR 8
ENCODING 56
SWIDTH 678 0
DWIDTH 19 0
BBX 19 30 0 -9
BITMAP
000000
000000
07C000
1FF000
383800
701C00
701C00
701C00
383800
1C7000
0FE000
3FF800
783C00
F01E00
E00E00
E00E00
E00E00
F01E00
783C00
3FF800
0FE000
000000
000000
000000
000000
000000
000000
000000
000000
000000
ENDCHAR

STARTCHAR 9
ENCODING 57
SWIDTH 678 0
DWIDTH 19 0
BBX 19 30 0 -9
BITMAP
000000
000000
0FE000
3FF800
783C00
701C00
E00E00
E00E00
E00E00
E00E00
700E00
781E00
3FFE00
0FEE00
000E00
000E00
600E00
F01C00
F03C00
7FF800
1FE000
000000
000000
000000
000000
000000
000000
000000
000000
000000
ENDCHAR

STARTCHAR :
ENCODING 58
SWIDTH 321 0
DWIDTH 9 0
BBX 9 30 0 -9
BITMAP
0000
0000
0000
0000
0000
0000
0000
0000
0000
0000
7000
F800
F800
7000
0000
0000
0000
7000
F800
F800
7000
0000
0000
0000
0000
0000
0000
0000
0000
0000
ENDCHAR

STARTCHAR ;
ENCODING 59
SWIDTH 321 0
DWIDTH 9 0
BBX 9 30 0 -9
BITMAP
0000
0000
0000
0000
0000
0000
0000
0000
0000
0000
7000
F800
F800
7000
0000
0000
0000
7000
F800
F800
7800
3800
3000
6000
C000
0000
0000
0000
0000
0000
ENDCHAR

STARTCHAR <
ENCODING 60
SWIDTH 607 0
DWIDTH 17 0
BBX 17 30 0 -9
BITMAP
000000
000000
007800
00F000
01E000
03C000
078000
0F0000
1E0000
3C0000
780000
F00000
780000
3C0000
1E0000
0F0000
078000
03C000
01E000
00F000
007800
000000
000000
000000
000000
000000
000000
000000
000000
000000
ENDCHAR

STARTCHAR =
ENCODING 61
SWIDTH 571 0
DWIDTH 16 0
BBX 16 30 0 -9
BITMAP
0000
0000
0000
0000
0000
0000
0000
FFF0
FFF0
FFF0
0000
0000
0000
FFF0
FFF0
FFF0
0000
0000
0000
0000
0000
0000
0000
0000
0000
0000
0000
0000
0000
0000
ENDCHAR

STARTCHAR >
ENCODING 62
SWIDTH 607 0
DWIDTH 17 0
BBX 17 30 0 -9
BITMAP
000000
000000
F00000
780000
3C0000
1E0000
0F0000
078000
03C000
01E000
00F000
007800
00F000
01E000
03C000
078000
0F0000
1E0000
3C0000
780000
F00000
000000
000000
000000
000000
000000
000000
000000
000000
000000
ENDCHAR

STARTCHAR ?
ENCODING 63
SWIDTH 642 0
DWIDTH 18 0
BBX 18 30 0 -9
BITMAP
000000
000000
0FE000
3FF000
703800
F81C00
F81C00
703C00
007800
00F000
01E000
03C000
078000
070000
020000
000000
000000
070000
0F8000
0F8000
070000
000000
000000
000000
000000
000000
000000
000000
000000
000000
ENDCHAR

STARTCHAR @
ENCODING 64
SWIDTH 678 0
DWIDTH 19 0
BBX 19 30 0 -9
BITMAP
000000
000000
07E000
1FF800
381C00
700E00
600E00
E1EE00
E3FE00
E79E00
E70E00
E70E00
E70E00
E79C00
E3F800
E1F000
E00000
700800
381C00
1FF800
07E000
000000
000000
000000
000000
000000
000000
000000
000000
000000
ENDCHAR

STARTCHAR A
ENCODING 65
SWIDTH 714 0
DWIDTH 20 0
BBX 20 30 0 -9
BITMAP
000000
000000
01F000
01F000
01F000
033800
033800
033800
061C00
061C00
061C00
0C0E00
0C0E00
0C0E00
1FFF00
1FFF00
180700
300380
300380
FF1FF0
FF1FF0
000000
000000
000000
000000
000000
000000
000000
000000
000000
ENDCHAR

STARTCHAR B
ENCODING 66
SWIDTH 678 0
DWIDTH 19 0
BBX 19 30 0 -9
BITMAP
000000
000000
FFF000
FFFC00
1C1E00
1C0F00
1C0700
1C0700
1C0E00
1C1C00
1FF800
1FFC00
1C0E00
1C0700
1C0380
1C0380
1C0380
1C0780
1C0F00
FFFE00
FFF800
000000
000000
000000
000000
000000
000000
000000
000000
000000
ENDCHAR

STARTCHAR C
ENCODING 67
SWIDTH 642 0
DWIDTH 18 0
BBX 18 30 0 -9
BITMAP
000000
000000
03F600
0FFE00
1C1E00
380E00
700600
700600
E00000
E00000
E00000
E00000
E00000
E00000
E00000
E00600
700700
700E00
383C00
1FF800
07E000
000000
000000
000000
000000
000000
000000
000000
000000
000000
ENDCHAR

STARTCHAR D
ENCODING 68
SWIDTH 678 0
DWIDTH 19 0
BBX 19 30 0 -9
BITMAP
000000
000000
FFF000
FFFC00
1C0E00
1C0700
1C0700
1C0380
1C0380
1C0380
1C0380
1C0380
1C0380
1C0380
1C0380
1C0380
1C0700
1C0700
1C0E00
FFFC00
FFF000
000000
000000
000000
000000
000000
000000
000000
000000
000000
ENDCHAR

STARTCHAR E
ENCODING 69
SWIDTH 642 0
DWIDTH 18 0
BBX 18 30 0 -9
BITMAP
000000
000000
FFFE00
FFFE00
1C0E00
1C0600
1C0600
1C0000
1C2000
1C6000
1FE000
1FE000
1C6000
1C2000
1C0000
1C0300
1C0300
1C0700
1C0F00
FFFF00
FFFF00
000000
000000
000000
000000
000000
000000
000000
000000
000000
ENDCHAR

STARTCHAR F
ENCODING 70
SWIDTH 607 0
DWIDTH 17 0
BBX 17 30 0 -9
BITMAP
000000
000000
FFFE00
FFFE00
1C0E00
1C0600
1C0600
1C0000
1C2000
1C6000
1FE000
1FE000
1C6000
1C2000
1C0000
1C0000
1C0000
1C0000
1C0000
FF8000
FF8000
000000
000000
000000
000000
000000
000000
000000
000000
000000
ENDCHAR

STARTCHAR G
ENCODING 71
SWIDTH 714 0
DWIDTH 20 0
BBX 20 30 0 -9
BITMAP
000000
000000
07F600
1FFE00
381E00
300E00
700600
700600
E00000
E00000
E00000
E07FC0
E07FC0
E00700
E00700
700700
700F00
301F00
383F00
1FF700
07C300
000000
000000
000000
000000
000000
000000
000000
000000
000000
ENDCHAR

STARTCHAR H
ENCODING 72
SWIDTH 785 0
DWIDTH 22 0
BBX 22 30 0 -9
BITMAP
000000
000000
FF9FF0
FF9FF0
1C0380
1C0380
1C0380
1C0380
1C0380
1C0380
1FFF80
1FFF80
1C0380
1C0380
1C0380
1C0380
1C0380
1C0380
1C0380
FF9FF0
FF9FF0
000000
000000
000000
000000
000000
000000
000000
000000
000000
ENDCHAR

STARTCHAR I
ENCODING 73
SWIDTH 392 0
DWIDTH 11 0
BBX 11 30 0 -9
BITMAP
0000
0000
FF80
FF80
1C00
1C00
1C00
1C00
1C00
1C00
1C00
1C00
1C00
1C00
1C00
1C00
1C00
1C00
1C00
FF80
FF80
0000
0000
0000
0000
0000
0000
0000
0000
0000
ENDCHAR

STARTCHAR J
ENCODING 74
SWIDTH 571 0
DWIDTH 16 0
BBX 16 30 0 -9
BITMAP
0000
0000
07FE
07FE
0070
0070
0070
0070
0070
0070
0070
0070
0070
0070
6070
F070
F070
E070
70E0
3FC0
0F80
0000
0000
0000
0000
0000
0000
0000
0000
0000
ENDCHAR

STARTCHAR K
ENCODING 75
SWIDTH 785 0
DWIDTH 22 0
BBX 22 30 0 -9
BITMAP
000000
000000
FF9FE0
FF9FE0
1C0700
1C0E00
1C1C00
1C3800
1C7000
1CE000
1DC000
1FE000
1FF000
1E7800
1C3C00
1C1E00
1C0F00
1C0780
1C03C0
FF9FF8
FF9FF8
000000
000000
000000
000000
000000
000000
000000
000000
000000
ENDCHAR

STARTCHAR L
ENCODING 76
SWIDTH 642 0
DWIDTH 18 0
BBX 18 30 0 -9
BITMAP
000000
000000
FF8000
FF8000
1C0000
1C0000
1C0000
1C0000
1C0000
1C0000
1C0000
1C0000
1C0000
1C0000
1C0300
1C0300
1C0300
1C0700
1C0F00
FFFF00
FFFF00
000000
000000
000000
000000
000000
000000
000000
000000
000000
ENDCHAR

STARTCHAR M
ENCODING 77
SWIDTH 1035 0
DWIDTH 29 0
BBX 29 30 0 -9
BITMAP
00000000
00000000
FF003FE0
FF003FE0
1F003700
1B807700
1B806700
1B806700
19C0E700
19C0C700
18E1C700
18E18700
18E18700
18738700
18730700
18770700
183E0700
183E0700
181C0700
FF1C3FE0
FF083FE0
00000000
00000000
00000000
00000000
00000000
00000000
00000000
00000000
00000000
ENDCHAR

STARTCHAR N
ENCODING 78
SWIDTH 785 0
DWIDTH 22 0
BBX 22 30 0 -9
BITMAP
000000
000000
FE0FF0
FE0FF0
1F0180
1F0180
1B8180
1B8180
19C180
19C180
18E180
18E180
187180
187180
183980
183980
181D80
181D80
180F80
FF0F80
FF0780
000000
000000
000000
000000
000000
000000
000000
000000
000000
ENDCHAR

STARTCHAR O
ENCODING 79
SWIDTH 678 0
DWIDTH 19 0
BBX 19 30 0 -9
BITMAP
000000
000000
07F000
1FFC00
380E00
700700
700700
E00380
E00380
E00380
E00380
E00380
E00380
E00380
E00380
E00380
700700
700700
380E00
1FFC00
07F000
000000
000000
000000
000000
000000
000000
000000
000000
000000
ENDCHAR

STARTCHAR P
ENCODING 80
SWIDTH 642 0
DWIDTH 18 0
BBX 18 30 0 -9
BITMAP
000000
000000
FFF000
FFFC00
1C0E00
1C0700
1C0700
1C0700
1C0700
1C0700
1C0E00
1FFC00
1FF000
1C0000
1C0000
1C0000
1C0000
1C0000
1C0000
FF8000
FF8000
000000
000000
000000
000000
000000
000000
000000
000000
000000
ENDCHAR

STARTCHAR Q
ENCODING 81
SWIDTH 678 0
DWIDTH 19 0
BBX 19 30 0 -9
BITMAP
000000
000000
07F000
1FFC00
380E00
700700
700700
E00380
E00380
E00380
E00380
E00380
E00380
E00380
E00380
E00380
700700
718700
3BCE00
1FFC00
0FF000
387980
E01F00
000E00
000000
000000
000000
000000
000000
000000
ENDCHAR

STARTCHAR R
ENCODING 82
SWIDTH 678 0
DWIDTH 19 0
BBX 19 30 0 -9
BITMAP
000000
000000
FFF800
FFFC00
1C0E00
1C0700
1C0700
1C0700
1C0700
1C0E00
1FFC00
1FF800
1C1E00
1C0F00
1C0700
1C0700
1C0700
1C0700
1C0700
FF87C0
FF83C0
000000
000000
000000
000000
000000
000000
000000
000000
000000
ENDCHAR

STARTCHAR S
ENCODING 83
SWIDTH 571 0
DWIDTH 16 0
BBX 16 30 0 -9
BITMAP
0000
0000
07D8
1FF8
3838
7018
7018
7800
7E00
3F80
1FE0
07F0
01F8
007C
003C
C01C
C01C
E03C
F078
FFF0
DFC0
0000
0000
0000
0000
0000
0000
0000
0000
0000
ENDCHAR

STARTCHAR T
ENCODING 84
SWIDTH 678 0
DWIDTH 19 0
BBX 19 30 0 -9
BITMAP
000000
000000
FFFF80
FFFF80
F1C780
E1C380
C1C180
C1C180
01C000
01C000
01C000
01C000
01C000
01C000
01C000
01C000
01C000
01C000
01C000
0FF800
0FF800
000000
000000
000000
000000
000000
000000
000000
000000
000000
ENDCHAR

STARTCHAR U
ENCODING 85
SWIDTH 785 0
DWIDTH 22 0
BBX 22 30 0 -9
BITMAP
000000
000000
FF8FF0
FF8FF0
1C0180
1C0180
1C0180
1C0180
1C0180
1C0180
1C0180
1C0180
1C0180
1C0180
1C0180
1C0180
1C0180
1E0380
0F0700
07FE00
01F800
000000
000000
000000
000000
000000
000000
000000
000000
000000
ENDCHAR

STARTCHAR V
ENCODING 86
SWIDTH 785 0
DWIDTH 22 0
BBX 22 30 0 -9
BITMAP
000000
000000
FF87F8
FF87F8
1C00C0
1C00C0
1C00C0
0E0180
0E0180
0E0180
070300
070300
070300
038600
038600
038600
01CC00
01CC00
01CC00
00F800
00F800
000000
000000
000000
000000
000000
000000
000000
000000
000000
ENDCHAR

STARTCHAR W
ENCODING 87
SWIDTH 1178 0
DWIDTH 33 0
BBX 33 30 0 -9
BITMAP
0000000000
0000000000
FF81C0FF00
FF81C0FF00
1C01C01800
1C03E01800
0E03E03800
0E03E03000
0E06F03000
0706707000
0706706000
070C786000
038C38E000
038C38C000
039C3CC000
01D81DC000
01D81D8000
01F81F8000
00F00F0000
00F00F0000
0060060000
0000000000
0000000000
0000000000
0000000000
0000000000
0000000000
0000000000
0000000000
0000000000
ENDCHAR

STARTCHAR X
ENCODING 88
SWIDTH 857 0
DWIDTH 24 0
BBX 24 30 0 -9
BITMAP
000000
000000
7FC7F8
7FC7F8
0F01C0
078380
078700
03CE00
01FC00
00F800
007000
007800
00FC00
00FE00
01CF00
038780
070780
0E03C0
1C01E0
FF8FFC
FF8FFC
000000
000000
000000
000000
000000
000000
000000
000000
000000
ENDCHAR

STARTCHAR Y
ENCODING 89
SWIDTH 714 0
DWIDTH 20 0
BBX 20 30 0 -9
BITMAP
000000
000000
FF0FE0
FF0FE0
1C0300
0E0600
0E0600
070C00
070C00
039800
01B000
01F000
00E000
00E000
00E000
00E000
00E000
00E000
00E000
07FC00
07FC00
000000
000000
000000
000000
000000
000000
000000
000000
000000
ENDCHAR

STARTCHAR Z
ENCODING 90
SWIDTH 571 0
DWIDTH 16 0
BBX 16 30 0 -9
BITMAP
0000
0000
7FFC
7FFC
7038
6070
6070
00E0
01C0
01C0
0380
0700
0700
0E00
1C00
1C0C
380C
701C
703C
FFFC
FFFC
0000
0000
0000
0000
0000
0000
0000
0000
0000
ENDCHAR

STARTCHAR [
ENCODING 91
SWIDTH 464 0
DWIDTH 13 0
BBX 13 30 0 -9
BITMAP
FF80
FF80
E000
E000
E000
E000
E000
E000
E000
E000
E000
E000
E000
E000
E000
E000
E000
E000
E000
E000
E000
E000
E000
E000
E000
FF80
FF80
0000
0000
0000
ENDCHAR

STARTCHAR \
ENCODING 92
SWIDTH 607 0
DWIDTH 17 0
BBX 17 30 0 -9
BITMAP
E00000
E00000
700000
700000
700000
380000
380000
1C0000
1C0000
1C0000
0E0000
0E0000
070000
070000
070000
038000
038000
01C000
01C000
01C000
00E000
00E000
007000
007000
007000
003800
003800
000000
000000
000000
ENDCHAR

STARTCHAR ]
ENCODING 93
SWIDTH 464 0
DWIDTH 13 0
BBX 13 30 0 -9
BITMAP
FF80
FF80
0380
0380
0380
0380
0380
0380
0380
0380
0380
0380
0380
0380
0380
0380
0380
0380
0380
0380
0380
0380
0380
0380
0380
FF80
FF80
0000
0000
0000
ENDCHAR

STARTCHAR ^
ENCODING 94
SWIDTH 464 0
DWIDTH 13 0
BBX 13 30 0 -9
BITMAP
0000
0000
0000
0000
0000
0000
0800
1C00
3E00
7F00
FF80
DD80
1C00
1C00
1C00
1C00
1C00
1C00
1C00
0000
0000
0000
0000
0000
0000
0000
0000
0000
0000
0000
ENDCHAR

STARTCHAR _
ENCODING 95
SWIDTH 571 0
DWIDTH 16 0
BBX 16 30 0 -9
BITMAP
0000
0000
0000
0000
0000
0000
0000
0000
0000
0000
0000
0000
0000
0000
0000
0000
0000
0000
0000
0000
0000
0000
FFFF
FFFF
0000
0000
0000
0000
0000
0000
ENDCHAR

STARTCHAR a
ENCODING 97
SWIDTH 535 0
DWIDTH 15 0
BBX 15 30 0 -9
BITMAP
0000
0000
0000
0000
0000
0000
0000
0F80
3FE0
70F0
2070
0070
03F0
1FF0
7C70
F070
E070
E070
F0F0
7FF8
3FBC
0000
0000
0000
0000
0000
0000
0000
0000
0000
ENDCHAR

STARTCHAR b
ENCODING 98
SWIDTH 607 0
DWIDTH 17 0
BBX 17 30 0 -9
BITMAP
000000
000000
FC0000
FC0000
1C0000
1C0000
1C0000
1DE000
1FF800
1F1C00
1E0E00
1C0E00
1C0E00
1C0E00
1C0E00
1C0E00
1C0E00
1E0C00
1F1C00
1FF800
1DE000
000000
000000
000000
000000
000000
000000
000000
000000
000000
ENDCHAR

STARTCHAR c
ENCODING 99
SWIDTH 535 0
DWIDTH 15 0
BBX 15 30 0 -9
BITMAP
0000
0000
0000
0000
0000
0000
0000
0FC0
3FF0
7838
7078
E030
E000
E000
E000
E000
E000
F030
78F8
3FF0
0FC0
0000
0000
0000
0000
0000
0000
0000
0000
0000
ENDCHAR

STARTCHAR d
ENCODING 100
SWIDTH 607 0
DWIDTH 17 0
BBX 17 30 0 -9
BITMAP
000000
000000
03F000
03F000
007000
007000
007000
0F7000
3FF000
71F000
60F000
E07000
E07000
E07000
E07000
E07000
E07000
E0F000
71F000
3FFE00
0F7E00
000000
000000
000000
000000
000000
000000
000000
000000
000000
ENDCHAR

STARTCHAR e
ENCODING 101
SWIDTH 535 0
DWIDTH 15 0
BBX 15 30 0 -9
BITMAP
0000
0000
0000
0000
0000
0000
0000
0F80
3FE0
7070
6030
E038
E038
FFF8
FFF8
E000
E000
6010
7038
3FF0
0FC0
0000
0000
0000
0000
0000
0000
0000
0000
0000
ENDCHAR

STARTCHAR f
ENCODING 102
SWIDTH 500 0
DWIDTH 14 0
BBX 14 30 0 -9
BITMAP
0000
0000
07E0
0FF0
1E38
1C10
1C00
FF80
FF80
1C00
1C00
1C00
1C00
1C00
1C00
1C00
1C00
1C00
1C00
FF80
FF80
0000
0000
0000
0000
0000
0000
0000
0000
0000
ENDCHAR

STARTCHAR g
ENCODING 103
SWIDTH 607 0
DWIDTH 17 0
BBX 17 30 0 -9
BITMAP
000000
000000
000000
000000
000000
000E00
001F00
03FA00
0FF000
1C3800
381C00
381C00
1C3C00
0FF800
1FE000
3C0000
380000
1E0000
1FF800
7FFE00
F00F00
E00700
E00700
F00F00
7FFE00
1FF800
000000
000000
000000
000000
ENDCHAR

STARTCHAR h
ENCODING 104
SWIDTH 714 0
DWIDTH 20 0
BBX 20 30 0 -9
BITMAP
000000
000000
FC0000
FC0000
1C0000
1C0000
1C0000
1DF000
1FF800
1F1C00
1E0E00
1C0E00
1C0E00
1C0E00
1C0E00
1C0E00
1C0E00
1C0E00
1C0E00
FF3FC0
FF3FC0
000000
000000
000000
000000
000000
000000
000000
000000
000000
ENDCHAR

STARTCHAR i
ENCODING 105
SWIDTH 392 0
DWIDTH 11 0
BBX 11 30 0 -9
BITMAP
0000
0000
1C00
1C00
1C00
0000
0000
FC00
FC00
1C00
1C00
1C00
1C00
1C00
1C00
1C00
1C00
1C00
1C00
FF80
FF80
0000
0000
0000
0000
0000
0000
0000
0000
0000
ENDCHAR

STARTCHAR j
ENCODING 106
SWIDTH 428 0
DWIDTH 12 0
BBX 12 30 0 -9
BITMAP
0000
0000
01C0
01C0
01C0
0000
0000
0FC0
0FC0
01C0
01C0
01C0
01C0
01C0
01C0
01C0
01C0
01C0
01C0
01C0
61C0
F1C0
F1C0
E380
7F00
1E00
0000
0000
0000
0000
ENDCHAR

STARTCHAR k
ENCODING 107
SWIDTH 714 0
DWIDTH 20 0
BBX 20 30 0 -9
BITMAP
000000
000000
FC0000
FC0000
1C0000
1C0000
1C0000
1CFF00
1CFF00
1C3800
1C7000
1CE000
1DC000
1FE000
1FF000
1E7800
1C3C00
1C1E00
1C0F00
FF3FE0
FF3FE0
000000
000000
000000
000000
000000
000000
000000
000000
000000
ENDCHAR

STARTCHAR l
ENCODING 108
SWIDTH 392 0
DWIDTH 11 0
BBX 11 30 0 -9
BITMAP
0000
0000
FC00
FC00
1C00
1C00
1C00
1C00
1C00
1C00
1C00
1C00
1C00
1C00
1C00
1C00
1C00
1C00
1C00
FF80
FF80
0000
0000
0000
0000
0000
0000
0000
0000
0000
ENDCHAR

STARTCHAR m
ENCODING 109
SWIDTH 964 0
DWIDTH 27 0
BBX 27 30 0 -9
BITMAP
00000000
00000000
00000000
00000000
00000000
00000000
00000000
FDF9F000
FFFFF800
1E3E3C00
1C1C1C00
1C1C1C00
1C1C1C00
1C1C1C00
1C1C1C00
1C1C1C00
1C1C1C00
1C1C1C00
1C1C1C00
FF7F7F80
FF7F7F80
00000000
00000000
00000000
00000000
00000000
00000000
00000000
00000000
00000000
ENDCHAR

STARTCHAR n
ENCODING 110
SWIDTH 678 0
DWIDTH 19 0
BBX 19 30 0 -9
BITMAP
000000
000000
000000
000000
000000
000000
000000
FDF000
FFF800
1E3C00
1C1C00
1C1C00
1C1C00
1C1C00
1C1C00
1C1C00
1C1C00
1C1C00
1C1C00
FF7F80
FF7F80
000000
000000
000000
000000
000000
000000
000000
000000
000000
ENDCHAR

STARTCHAR o
ENCODING 111
SWIDTH 571 0
DWIDTH 16 0
BBX 16 30 0 -9
BITMAP
0000
0000
0000
0000
0000
0000
0000
0FC0
3FF0
7878
7038
E01C
E01C
E01C
E01C
E01C
E01C
F038
7878
3FF0
0FC0
0000
0000
0000
0000
0000
0000
0000
0000
0000
ENDCHAR

STARTCHAR p
ENCODING 112
SWIDTH 607 0
DWIDTH 17 0
BBX 17 30 0 -9
BITMAP
000000
000000
000000
000000
000000
000000
000000
FDE000
FFF800
1F3C00
1E1C00
1C0E00
1C0E00
1C0E00
1C0E00
1C0E00
1E1C00
1F3C00
1FF800
1DE000
1C0000
1C0000
1C0000
FF8000
FF8000
000000
000000
000000
000000
000000
ENDCHAR

STARTCHAR q
ENCODING 113
SWIDTH 607 0
DWIDTH 17 0
BBX 17 30 0 -9
BITMAP
000000
000000
000000
000000
000000
000000
000000
0F7E00
3FFE00
78F000
707000
E07000
E07000
E07000
E07000
E07000
E07000
F0F000
79F000
3FF000
0F7000
007000
007000
007000
03FE00
03FE00
000000
000000
000000
000000
ENDCHAR

STARTCHAR r
ENCODING 114
SWIDTH 500 0
DWIDTH 14 0
BBX 14 30 0 -9
BITMAP
0000
0000
0000
0000
0000
0000
0000
FCE0
FDF0
1FF0
1E60
1C00
1C00
1C00
1C00
1C00
1C00
1C00
1C00
FF80
FF80
0000
0000
0000
0000
0000
0000
0000
0000
0000
ENDCHAR

STARTCHAR s
ENCODING 115
SWIDTH 464 0
DWIDTH 13 0
BBX 13 30 0 -9
BITMAP
0000
0000
0000
0000
0000
0000
0000
0F60
3FE0
70E0
6060
7000
3C00
1F80
07C0
00E0
C0E0
C060
E0E0
FFC0
DF80
0000
0000
0000
0000
0000
0000
0000
0000
0000
ENDCHAR

STARTCHAR t
ENCODING 116
SWIDTH 428 0
DWIDTH 12 0
BBX 12 30 0 -9
BITMAP
0000
0000
0000
0400
0C00
1C00
1C00
FF80
FF80
1C00
1C00
1C00
1C00
1C00
1C00
1C00
1C00
1CC0
1DC0
0F80
0700
0000
0000
0000
0000
0000
0000
0000
0000
0000
ENDCHAR

STARTCHAR u
ENCODING 117
SWIDTH 714 0
DWIDTH 20 0
BBX 20 30 0 -9
BITMAP
000000
000000
000000
000000
000000
000000
000000
FC7E00
FC7E00
1C0E00
1C0E00
1C0E00
1C0E00
1C0E00
1C0E00
1C0E00
1C0E00
1C0E00
1E1E00
0FFFC0
07EFC0
000000
000000
000000
000000
000000
000000
000000
000000
000000
ENDCHAR

STARTCHAR v
ENCODING 118
SWIDTH 678 0
DWIDTH 19 0
BBX 19 30 0 -9
BITMAP
000000
000000
000000
000000
000000
000000
000000
FF1FC0
FF1FC0
1C0600
1C0600
0E0C00
0E0C00
0E0C00
071800
071800
071800
03B000
03B000
01E000
01E000
000000
000000
000000
000000
000000
000000
000000
000000
000000
ENDCHAR

STARTCHAR w
ENCODING 119
SWIDTH 1035 0
DWIDTH 29 0
BBX 29 30 0 -9
BITMAP
00000000
00000000
00000000
00000000
00000000
00000000
00000000
FF870FF0
FF870FF0
1C070180
1C0F8180
1C0F8300
0E1F8300
0E19C600
0E19C600
0731C600
0730EC00
0760EC00
03E0FC00
03C07800
03C07800
00000000
00000000
00000000
00000000
00000000
00000000
00000000
00000000
00000000
ENDCHAR

STARTCHAR x
ENCODING 120
SWIDTH 714 0
DWIDTH 20 0
BBX 20 30 0 -9
BITMAP
000000
000000
000000
000000
000000
000000
000000
7F9FC0
7F9FC0
0E0600
070C00
071800
03B000
01E000
01E000
03F000
063800
0C3800
181C00
FE7F80
FE7F80
000000
000000
000000
000000
000000
000000
000000
000000
000000
ENDCHAR

STARTCHAR y
ENCODING 121
SWIDTH 678 0
DWIDTH 19 0
BBX 19 30 0 -9
BITMAP
000000
000000
000000
000000
000000
000000
000000
FF1FC0
FF1FC0
1C0600
1C0C00
0E0C00
0E1800
0E1800
073000
073000
076000
03E000
03C000
01C000
018000
638000
F30000
E70000
7E0000
3C0000
000000
000000
000000
000000
ENDCHAR

STARTCHAR z
ENCODING 122
SWIDTH 500 0
DWIDTH 14 0
BBX 14 30 0 -9
BITMAP
0000
0000
0000
0000
0000
0000
0000
7FF0
7FF0
6070
40E0
01C0
0380
0700
0E00
1C00
3810
7030
E070
FFF0
FFF0
0000
0000
0000
0000
0000
0000
0000
0000
0000
ENDCHAR

STARTCHAR {
ENCODING 123
SWIDTH 607 0
DWIDTH 17 0
BBX 17 30 0 -9
BITMAP
00F800
03F800
078000
070000
0E0000
0E0000
0E0000
0E0000
0E0000
0E0000
0E0000
1C0000
380000
F00000
F00000
380000
1C0000
1E0000
0E0000
0E0000
0E0000
0E0000
0E0000
0E0000
070000
078000
03F800
00F800
000000
000000
ENDCHAR

STARTCHAR |
ENCODING 124
SWIDTH 321 0
DWIDTH 9 0
BBX 9 30 0 -9
BITMAP
E000
E000
E000
E000
E000
E000
E000
E000
E000
E000
E000
E000
E000
E000
E000
E000
E000
E000
E000
E000
E000
E000
E000
E000
E000
E000
E000
E000
0000
0000
ENDCHAR

STARTCHAR }
ENCODING 125
SWIDTH 607 0
DWIDTH 17 0
BBX 17 30 0 -9
BITMAP
F80000
FE0000
0F0000
070000
038000
038000
038000
038000
038000
038000
03C000
01C000
00E000
007800
007800
00E000
01C000
03C000
038000
038000
038000
038000
038000
038000
070000
0F0000
FE0000
F80000
000000
000000
ENDCHAR

STARTCHAR ~
ENCODING 126
SWIDTH 678 0
DWIDTH 19 0
BBX 19 30 0 -9
BITMAP
000000
000000
000000
000000
000000
000000
000000
000000
000000
000000
000000
1F0600
7F8E00
E3FC00
C1F000
000000
000000
000000
000000
000000
000000
000000
000000
000000
000000
000000
000000
000000
000000
000000
ENDCHAR
ENDFONT
